<svg preserveAspectRatio="none" width="100%" height="100%" overflow="visible" style="display: block;" viewBox="0 0 1783 892" fill="none" xmlns="http://www.w3.org/2000/svg">
<g id="image 1 [Vectorized]">
<path id="Vector" d="M823.686 231.531C825.466 231.235 830.329 233.34 832.227 233.174C838.592 232.614 857.984 231.138 862.787 234.167C867.452 238.219 870.013 245.242 875.55 248.277C878.023 249.629 878.45 250.236 877.91 252.713C873.844 256.731 870.409 253.056 869.279 253.781C864.63 256.765 859.447 255.039 854.627 256.238L854.067 257.585C857.859 258.983 863.944 261.078 866.474 264.111C867.406 267.741 866.899 265.754 864.592 270.223C865.674 273.48 868.435 273.406 870.919 276.106C873.33 278.718 869.232 280.38 871.668 283.219C875.829 288.079 882.089 293.324 885.353 298.682C888.993 304.654 880.6 305.304 878.981 311.035C878.78 321.249 896.715 329.033 903.941 334.03C905.743 335.272 909.965 344.235 911.628 346.785L914.249 347.09C914.745 349.751 914.954 348.704 913.439 350.995C908.572 352.66 903.471 350.221 899.449 351.056C891.5 352.709 890.055 348.541 883.621 345.028L882.977 345.68C883.316 346.189 886.163 350.445 885.319 350.81C866.078 359.165 870.823 380.201 867.068 396.586C866.881 397.4 863.008 398.736 862.105 399.024L861.559 399.195C861.555 402.445 861.448 405.912 861.058 409.132C860.448 414.175 854.47 424.065 848.703 422.928C847.465 420.822 847.944 419.031 848.167 416.505L846.906 415.774C844.248 416.359 845.169 415.738 843.548 418.252C843.17 421.204 845.222 424.443 846.604 427.215C843.76 428.137 843.096 428.296 840.589 430.02C840.488 430.422 840.381 430.822 840.267 431.221C838.461 437.575 836.269 436.817 830.647 439.948C828.946 444.362 833.518 440.622 835.851 447.564C834.957 451.506 832.246 451.384 829.183 455.948L829.677 457.01C833.156 456.033 834.837 454.798 838.184 455.855C840.612 458.928 840.833 464.606 838.312 467.498C836.106 467.37 835.478 467.197 833.411 467.83C831.641 470.621 832.247 477.103 832.05 481.116C829.547 484.605 827.695 480.034 823.894 481.972C824.323 484.012 827.675 487.15 829.234 488.696C819.177 499.847 824.511 498.122 818.045 507.85C813.042 507.863 789.864 521.047 780.523 524.21C780.249 518.599 778.6 509.626 777.694 503.817C773.603 502.302 773.81 502.208 770.779 498.913C762.286 489.677 757.919 500.744 750.188 500.656C748.448 498.054 749.014 495.955 748.946 492.415C747.65 490.356 748.405 490.984 746.057 490.099C743.545 490.925 742.241 491.475 739.88 492.569C737.371 491.952 732.993 486.539 730.932 484.316C726.236 487.963 726.453 491.57 719.57 495.944L719.25 496.143C714.133 500.026 713.158 496.467 707.661 494.9C703.794 494.961 696.949 501.133 693.441 503.835C691.202 500.203 696.321 480.626 687.852 480.522C686.589 482.038 685.695 483.107 684.271 484.502C681.817 483.878 680.059 482.916 677.815 481.811C673.072 482.358 673.782 484.763 668.211 486.693C664.264 486.317 666.031 486.928 662.977 483.447C660.81 483.407 660.236 483.776 658.312 484.662L657.715 484.943C653.366 482.772 656.984 482.039 653.086 479.55C649.825 479.781 647.428 481.933 644.731 483.868C641.27 473.256 640.275 460.795 637.846 449.866C637.321 447.499 635.137 446.956 633.191 445.089C633.227 440.617 638.567 435.747 638.173 431.483C637.461 423.786 631.676 417.507 623.964 417.765L623.245 417.795C625.073 412.215 620.797 414.173 619.117 410.686L621.145 410.079C618.918 410.034 618.381 409.974 616.221 409.431L616.453 408.191C618.4 408.166 620.346 408.074 622.286 407.915L622.05 406.334C620.314 405.178 619.711 404.821 618.845 402.907C615.569 400.884 614.834 403.119 610.07 401.658C606.394 395.627 611.949 388.154 609.806 379.123L609.677 378.596C608.202 372.445 602.083 372.275 600.709 365.856C600.057 362.811 599.929 359.008 601.819 356.538C604.935 352.469 602.845 345.492 603.431 341.124C604.046 337.92 607.687 328.735 610.428 327.148C616.405 323.692 612.156 318.561 616.726 315.316C621.466 316.785 622.041 321.854 625.325 326.073C631.559 334.084 640.138 346.341 648.766 351.467C653.51 353.323 665.203 346.71 669.49 346.723C683.839 346.768 686.389 347.384 699.108 342.242C702.605 333.255 702.574 330.895 712.026 327.579C716.175 328.557 716.694 328.901 720.622 328.522C727.21 327.888 738.838 336.785 745.7 339.205C748.305 340.124 750.924 334.642 752.734 334.444C758.155 333.852 768.38 330.823 773.448 331.394C773.684 331.42 775.284 332.32 775.858 331.829C778.959 329.182 785.319 317.071 787.235 313.658C786.83 311.131 785.284 310.18 783.324 307.956C783.527 303.376 796.257 297.976 799.291 292.442C798.367 290.748 796.769 290.747 794.432 289.95L794.104 288.169C801.195 268.447 812.775 280.261 807.932 248.16C809.906 245.42 813.494 238.855 816.003 237.135C819.604 234.667 820.008 234.866 823.686 231.531Z" fill="var(--fill-0, #008AA9)" fill-opacity="0.28"/>
<path id="Vector_2" d="M228.549 203.016C233.077 202.026 243.788 210.079 249.652 213.191C257.888 213.569 264.96 209.865 270.813 214.466C271.616 215.096 277.076 212.369 277.927 213.02C283.177 217.034 281.38 218.704 288.608 221.388L288.997 221.528C290.572 229.314 288.096 234.46 296.534 236.108L297.124 236.219C300.954 243.284 286.443 247.192 306.049 252.993C306.721 253.191 307.582 259.912 309.233 260.593C329.668 269.019 342.162 281.716 350.669 302.008C352.109 305.42 363.903 317.048 368.246 318.175C368.909 316.077 366.569 313.144 365.268 310.283C366.447 308.826 366.743 308.367 369.055 307.976C380.397 306.06 375.119 322.344 383.844 327.679C392.412 328.1 393.539 332.483 401.882 337.695C401.912 341.446 401.453 345.87 401.158 349.661C404.101 353.052 407.044 356.877 409.864 360.402C415.234 360.513 420.366 358.547 423.596 359.828C425.694 362.444 425.822 362.881 426.664 366.108C424.671 374.255 413.646 369.808 413.236 378.23C416.144 378.433 432.793 368.128 439.331 365.818L439.779 365.663C457.847 387.594 439.827 383.153 431.203 391.885C430.353 394.335 430.225 393.515 431.073 395.421C436.401 396.72 438.379 390.787 444.648 394.232C443.276 394.585 443.277 394.645 442.056 395.39L443.341 394.792C441.156 396.212 436.948 403.143 437.738 404.618C440.49 409.76 444.332 412.91 445.818 419.389C469.834 418.662 463.814 419.607 466.824 439.856C466.834 439.924 470.18 441.557 470.167 442.099C470.121 444.056 469.092 445.74 468.818 448.075C473.109 449.644 475.003 448.654 479.119 451.59C481.813 457.253 476.736 458.521 477.089 463.079C481.872 465.976 495.258 463.665 501.773 463.455C502.196 465.949 502.406 468.384 502.652 470.899C510.906 480.627 503.942 480.382 515.085 484.923C519.302 491.951 508.253 500.014 507.522 505.61C507.014 509.503 508.02 509.363 510.72 512.785C511.808 516.079 510.297 520.19 509.413 523.674C507.385 532.122 513.236 540.305 512.79 546.082C512.037 555.847 509.593 569.937 508.097 579.787L507.195 580.059L507.042 576.645C506.571 577.203 506.016 579.38 505.758 580.226C503.994 576.138 498.125 570.427 493.587 570.275C490.649 572.687 492.387 573.593 490.43 578.055C487.022 578.2 479.691 569.904 474.428 569.941C470.934 574.434 477.511 580.176 476.652 584.002L474.955 583.975C472.31 582.234 471.387 577.742 469.082 574.728C454.046 555.065 434.246 541.824 416.279 525.698C411.118 521.065 406.25 511.649 404.475 504.848C397.092 499.716 385.199 491.552 380.105 484.601C377.953 481.664 375.635 475.668 373.544 472.272C371.419 468.819 366.668 464.988 366.003 461.11C365.409 457.646 368.89 452.882 366.892 448.975C363.633 442.604 360.692 435.447 357.157 429.223C356.42 427.923 351.264 424.354 351.105 423.057C350.824 420.778 350.737 415.473 349.794 413.423C343.964 400.766 337.279 393.999 332.122 380.626C322.329 379.271 321.457 380.086 319.1 370.346C315.502 355.47 310.402 341.921 308.751 326.55C308.51 324.312 298.629 315.138 295.85 313.86C289.861 309.883 289.29 309.474 281.898 310.411C279.211 303.011 280.338 298.262 277.943 291.13C277.881 288.104 268.088 283.408 267.719 282.284C264.748 273.255 264.985 270.934 258.423 263.628L249.464 260.149C242.463 247.6 218.266 222.916 221.718 205.958C221.947 204.829 227.004 203.532 228.549 203.016Z" fill="var(--fill-0, #008AA9)" fill-opacity="0.28"/>
<path id="Vector_3" d="M1327.79 395.146C1345.33 397.022 1343.46 399.928 1357.8 408.853C1358.52 409.302 1368.32 406.804 1371.87 407.083C1376.93 410.321 1372.37 414.428 1373.23 418.971C1373.49 420.387 1378.13 425.804 1378.95 428.271C1380.99 434.409 1375.52 436.149 1373.75 440.41C1374.92 447.797 1380.26 475.071 1385.76 479.2C1387.75 477.925 1386.74 475.801 1388.1 472.245C1389.01 473.44 1388.57 476.354 1388.55 478.229C1390.46 482.225 1392.22 482.408 1396.01 485.047C1395.48 486.683 1395.1 488.115 1394.68 489.78C1395.38 492.95 1398.88 494.594 1401.32 496.23C1411.55 503.102 1413.25 496.261 1418.6 490.369C1424.96 483.362 1426.47 486.595 1427.99 476.028C1439.85 469.462 1432.94 470.651 1440.13 462.087C1442.85 458.848 1448.8 462.464 1453.18 458.154L1458.24 460.049C1464.04 456.916 1461.31 451.409 1459.54 446.882L1460.62 445.626C1464.25 446.021 1463.41 447.656 1467.04 448.778C1468.88 446.94 1468.38 447.869 1468.82 445.219C1467.27 443.844 1466.19 442.964 1464.52 441.745C1466.59 439.362 1476.02 433.428 1479.18 432.487C1484.23 433.803 1480.8 438.228 1484.68 439.605C1496.55 443.818 1504.51 448.82 1514.57 456.288C1527.08 465.571 1543.16 465.819 1557.1 471.341C1557.1 471.342 1560.92 470.498 1561.31 470.413C1563.2 476.25 1556.63 499.034 1556.8 506.27C1557.3 527.721 1557.63 547.468 1554.88 568.839C1553.13 582.456 1555.86 590.316 1549.74 603.719C1550.5 607.288 1551.24 610.866 1551.92 614.452C1552.66 618.453 1552.99 622.519 1552.89 626.587C1552.8 630.145 1552.68 634.821 1551.56 640.848C1549.34 652.699 1551.39 669.084 1548.38 680.548C1547.41 684.241 1547.23 681.158 1547.57 685.439C1535.11 684.251 1531.52 652.123 1519.82 654.042C1516.33 654.616 1513.29 659.428 1507.64 658.165C1500.87 651.336 1507.32 642.204 1505.29 635.136C1501.69 633.352 1497.54 631.238 1497.13 626.571C1499.49 625.582 1502.76 627.127 1507.02 626.672L1508.03 625.389C1506.3 620.317 1498.99 620.444 1492.93 617.092C1492.29 614.591 1497.8 615.627 1499.48 611.155C1498.1 607.918 1497.17 610.597 1495.59 609.226C1494.25 608.077 1494.56 599.461 1486.57 593.103C1485.63 587.902 1484.17 583.95 1483.4 578.318C1484.57 577.094 1485.31 576.247 1486.34 574.912C1485.96 572.03 1486.43 573.037 1484.73 570.923C1483 571.55 1482.54 571.678 1480.72 571.986C1475.5 565.567 1471.01 559.053 1464.71 553.329C1463.98 552.664 1466.6 548.358 1462.83 545.772L1458.09 547.093C1457.09 546.04 1456.45 545.256 1455.55 544.115C1451.14 545.018 1453.94 546.334 1449.56 547.559C1447.86 544.654 1446.56 542.22 1442.61 543.127C1437.1 545.531 1427.6 535.044 1423.52 535.039C1415 535.029 1393.65 530.757 1390.32 520.824C1393.44 517.971 1393.83 520.652 1397.95 518.175L1397.93 516.27C1394.9 514.428 1382.75 517.372 1378.82 518.121C1373.93 515.393 1378.61 510.626 1370.5 512.191L1369.32 511.239C1369.3 509.369 1369.37 509.178 1368.6 507.522C1354.31 504.287 1368.33 492.839 1367.66 484.478L1366.35 483.956C1359.82 487.524 1356.81 513.143 1351.31 518.17C1341.54 527.106 1331.06 513.782 1340.43 505.15C1341.72 497.504 1333.58 497.073 1330.72 488.487C1326.49 485.397 1324.28 484.076 1319.74 481.58C1318.07 482.482 1317.98 482.613 1316.16 482.415C1314.7 479.17 1314.82 480.455 1315.17 477.298C1320.16 471.878 1333.6 474.5 1339.4 477.654C1342.01 473.071 1343.79 469.273 1348.31 466.573C1354.46 466.472 1351.62 472.587 1356.04 475.26C1361.66 469.926 1367.99 469.345 1370.06 463.009L1368.22 460.459C1368.57 458.142 1368.79 457.617 1368.33 455.373C1364.13 454.815 1362.71 458.207 1358.57 457.742C1351.06 456.899 1341.01 460.481 1334.21 459.906C1330.03 455.581 1330.62 457.156 1325.51 457.794C1317.99 458.736 1316.09 450.135 1316.11 444.26C1316.15 437.646 1309.78 437.903 1305.31 434.541C1305.15 432.415 1305.3 431.694 1304.11 430.037L1302.65 430.044C1297.73 436.493 1300.11 431.457 1295.01 429.047C1294.1 431.311 1293.72 433.002 1291.6 434.254L1289.7 433.715C1288.31 431.997 1287.65 431.535 1287.45 429.453C1292.43 422.457 1293.09 417.868 1295.28 409.568C1300.53 409.217 1305.74 408.387 1310.95 407.647C1315.23 403.944 1322.89 395.98 1327.79 395.146Z" fill="var(--fill-0, #008AA9)" fill-opacity="0.28"/>
<path id="Vector_4" d="M946.644 384.327C947.123 385.326 949.491 396.282 949.439 397.232C949.03 404.769 952.251 406.173 954.706 413.261C956.761 414.063 962.507 416.352 963.02 417.463C966.99 426.201 961.941 428.473 974.477 428.434C974.077 428.436 979.475 433.215 980.624 433.925C984.55 430.703 983.48 425.4 987.171 422.78C992.229 419.195 992.325 418.094 994.423 412.55C999.821 409.404 1000.71 414.664 1008.09 416.481C1014.98 415.407 1013.36 413.536 1016.79 409.327C1019.37 408.403 1033.98 409.834 1038.98 409.893L1039.41 411.034C1033.85 419.565 1027.71 424.463 1023.26 432.861C1021.67 435.834 1012.37 435.301 1009.47 436.905C1006.51 438.541 1004.83 447.02 1001.54 447.969C999.037 448.692 995.241 443.379 991.341 441.756L990.218 442.564C989.286 451.026 1001.82 456.677 1006.48 462.723C1007.98 464.661 1009.17 472.768 1010.96 474.929C1011.8 476.093 1018.67 479.82 1018.43 481.248C1017.23 488.367 1023.28 487.266 1024.64 491.507C1023.35 492.999 1022.09 494.513 1020.85 496.045C1015.33 502.907 1014.61 510.227 1024.89 512.616C1024.72 512.576 1030.98 521.977 1033.77 523.936L1037.37 523.138L1037.79 523.82C1037.7 526.333 1037.78 530.875 1036.9 532.993L1034.3 531.568C1033.66 533.433 1033.67 533.535 1032.17 534.719C1028.28 531.64 1028.12 533.199 1023.7 534.039C1011.07 536.437 1014.86 541.076 1011.08 547.611C997.017 548.71 1007.72 548.63 997.67 544.562L996.939 544.273C993.683 534.184 1000.37 530.543 998.454 521.709C997.766 517.514 989.826 517.762 988.773 516.659C985.525 513.266 986.274 512.6 981.138 510.814C979.954 508.324 978.047 500.979 977.194 497.993C987.005 488.956 979.84 485.667 982.278 475.614C982.591 474.313 983.305 474.761 982.774 472.439C974.652 466.574 956.987 478.598 954.549 485.613C955.481 488.495 957.1 488.89 959.982 491.009C960.617 494.476 961.627 509.863 960.487 511.943C954.314 523.194 960.583 530.191 960.617 541.724C960.626 544.901 957.031 552.265 956.473 556.665C955.62 563.365 963.09 567.262 962.498 571.769C958.519 572.171 951.746 570.733 947.715 571.654C946.67 572.553 943.345 576.337 942.134 576.515C926.533 578.802 926.046 566.835 933.037 556.705C931.922 542.048 943.449 529.762 934.403 514.342C930.233 507.229 935.065 506.097 931.609 499.906C925.889 496.677 924.261 500.651 917.061 502.522L914.928 501.257C911.655 496.472 912.76 490.677 913.048 485.124C913.335 479.678 911.62 480.555 910.54 475.824C916.486 471.784 917.583 470.858 921.754 465.03C922.18 461.903 922.468 457.97 923.329 454.959C923.321 452.935 929.537 448.478 929.284 447.682C925.889 436.813 926.881 426.576 932.392 416.507C934.099 413.398 936.249 408.086 939.671 406.97C942.152 408.062 942.021 409.11 943.588 412.001L945.19 411.497C948.708 401.195 934.221 403.894 946.644 384.327Z" fill="var(--fill-0, #008AA9)" fill-opacity="0.28"/>
<path id="Vector_5" d="M518.737 583.69C519.046 584.044 521.464 586.651 521.705 586.666C528.586 587.118 535.412 589.912 542.12 591.144C544.518 591.585 544.428 591.126 545.864 589.977C546.173 587.722 546.139 587.195 547.106 585.18C559.514 591.592 567.475 595.93 581.54 598.999C582.457 599.199 586.169 597.141 586.306 597.291C589.825 601.131 591.67 613.354 596.76 614.538C612.488 617.991 629.849 616.982 646.052 618.722C655.826 619.77 657.205 606.349 662.661 603.755C674.705 602.405 666.788 614.029 685.301 610.963C695.293 618.7 704.552 617.571 716.378 619.353C717.986 619.596 717.629 625.825 718.281 627.823C719.016 630.074 723.622 630.868 724.277 632.702C728.026 643.211 725.482 640.641 733.425 648.474L757.671 647.688C759.325 645.831 759.815 645.161 761.983 643.847C766.005 648.749 766.93 647.944 773.329 647.758C774.339 649.483 771.943 669.237 772.124 673.195C772.244 675.825 775.613 678.687 777.519 680.677L777.103 681.455C775.006 680.747 774.199 679.607 772.648 678.013C769.897 675.797 761.552 676.882 758.588 675.456C757.366 674.868 753.675 671.404 751.504 669.949C748.271 670.934 747.607 670.754 744.591 668.89C735.165 663.065 727.84 667.377 717.896 670.496L717.535 670.327C709.789 666.758 705.117 665.303 696.368 664.383C692.376 663.963 692.151 664.833 689.41 667.174C687.169 667.345 685.032 666.039 683.007 664.997C673.446 660.076 679.004 667.132 669.409 663.458C666.168 662.216 659.353 660.573 655.845 659.218C648.963 656.562 616.045 641.913 610.679 643.775C608.094 646.596 607.722 647.46 604.114 647.019C595.357 637.644 596.233 647.927 589.629 648.269C577.95 648.873 569.709 642.493 560.689 636.191C554.032 636.231 534.699 636.602 531.18 630.635C530.59 627.817 532.844 624.658 534.035 621.324C533.831 620.859 533.627 620.395 533.423 619.93C525.515 617.977 524.877 619.361 518.611 614.231C515.539 614.352 502.146 615.519 500.491 614.677C520.688 601.107 506.99 593.533 518.737 583.69Z" fill="var(--fill-0, #008AA9)" fill-opacity="0.28"/>
<path id="Vector_6" d="M1103.61 323.214C1109.01 325.461 1109.24 326.186 1112.96 330.755L1106.08 336.869C1105.92 337.869 1105.02 343.583 1104.69 344.005C1098.43 351.733 1091.24 353.526 1088.18 363.354L1088.04 363.806C1085.2 365.817 1075.05 368.553 1069.44 371.323C1065.66 370.391 1060.43 369.548 1056.51 369.279C1049.33 368.785 1049.49 367.288 1044.5 363.232C1038.95 363.298 1017.82 362.396 1014.32 364.631C1008.47 369.801 1003.58 362.41 1000.8 362.406C986.074 362.389 982.113 371.819 968.226 361.957C958.049 364.21 953.461 371.943 950.353 381.128C946.505 380.998 946.078 383.227 944.076 386.185L943.162 385.743C944.189 384.083 945.016 382.559 945.634 380.706C944.189 377.725 943.449 376.577 943.214 373.252C945.129 368.252 954.776 351.447 958.162 347.698C959.494 349.297 957.892 351.567 958.789 355.392C968.662 361.719 973.877 338.24 976.036 335.915C982.635 334.833 981.138 342.089 991.115 337.244L992.838 338.347C993.03 338.793 993.221 339.238 993.43 339.68C998.567 350.999 1009.35 342.514 1020.71 346.475C1024.63 347.842 1035.72 353.259 1038.67 352.993C1039.29 352.43 1042.23 349.977 1042.77 349.976C1052.56 350 1061.56 354.343 1071.31 352.122C1079.39 350.282 1083.47 342.381 1091.18 342.111C1093.03 339.836 1092.1 338.702 1092.24 334.866C1100.39 331.666 1099.57 330.695 1103.61 323.214Z" fill="var(--fill-0, #008AA9)" fill-opacity="0.28"/>
<path id="Vector_7" d="M1212.77 479.437C1215.53 479.63 1217.4 481.319 1221.03 482.001C1222.47 481.131 1223.59 480.367 1224.96 479.395L1226.78 480.049C1228.2 481.972 1228.8 483.065 1230.97 484.19C1237.77 483.43 1233.5 478.774 1246.66 479.334C1248.74 481.402 1250.76 483.734 1252.74 485.93C1257.69 486.613 1261.39 486.083 1266.3 485.629L1266.87 488.944C1273.22 493.81 1284.87 500.876 1279.11 512.194C1278.32 513.747 1276.46 513.6 1275.02 513.55C1272.33 512.011 1272.06 511.31 1270.78 508.52L1270.42 507.732C1268.8 505.123 1259.27 502.521 1252.29 495.292C1248.47 495.048 1244.94 494.629 1241.19 495.405C1240.46 496.882 1240.53 497.048 1240.46 498.75L1240.46 499.215C1238.25 499.548 1237.46 499.329 1235.31 497.926C1230.62 494.862 1228.89 497.51 1224.19 495.827C1223.35 493.861 1223.07 493.254 1221.85 491.502C1215.36 492.568 1216.97 498.516 1212.99 501.325C1210.53 500.348 1198.92 487.457 1200.07 483.55C1203.11 480.951 1206.19 482.832 1212.03 479.827L1212.77 479.437Z" fill="var(--fill-0, #008AA9)" fill-opacity="0.28"/>
<path id="Vector_8" d="M886.215 658.899C892.719 661.952 890.255 669.365 896.985 670.072L898.97 667.068C901.085 665.868 901.381 665.872 903.793 666.234C909.182 672.413 908.259 666.512 914.632 667.353C915.529 667.471 919.072 679.392 919.22 680.465C916.695 681.374 913.979 678.682 911.82 679.487C906.257 681.561 905.203 684.992 898.891 685.632C897.02 683.408 900.319 682.424 898.796 678.636C895.217 678.51 892.867 683.673 892.014 683.665C887.643 683.622 870.022 690.76 867.406 691.174C859.383 688.56 843.053 699.297 847.738 680.648C850.131 671.123 857.414 671.46 864.97 673.195C873.113 669.651 874.758 676.88 882.507 682.253C885.214 681.063 891.544 679.096 892.937 677.236C889.924 672.715 876.552 667.304 876.595 663.151C880.469 663.004 882.341 660.956 886.215 658.899Z" fill="var(--fill-0, #008AA9)" fill-opacity="0.28"/>
<path id="Vector_9" d="M1097.22 687.718L1098.18 687.628L1097.71 695.054C1100.23 694.483 1100.17 692.604 1103.31 690.58C1105.3 691.387 1104.57 690.713 1105.49 692.736C1103.14 696.618 1103.96 692.756 1100.27 696.479C1099.26 699.556 1100.54 704.442 1101.13 707.815C1087.21 724.057 1078.37 730.659 1056.37 734.183L1055.38 735.025L1055.17 733.609C1056.56 728.488 1062.71 727.692 1062.46 723.345C1059.81 723.527 1059.63 723.979 1057.6 722.798L1057.67 721.025C1064.95 714.57 1058.68 712.318 1071.26 703.281C1078.25 704.243 1076.02 704.468 1081.87 706.887C1085.54 697.82 1084.16 695.436 1094.66 694.519C1097.26 692 1096.5 692.101 1097.22 687.718Z" fill="var(--fill-0, #008AA9)" fill-opacity="0.28"/>
<path id="Vector_10" d="M508.745 433.851C511.076 434.204 511.63 434.18 513.394 435.693C513.34 445.19 517.105 441.167 519.811 447.656C520.992 450.49 518.439 460.473 520.264 464.043C523.21 469.806 530.012 466.827 535.478 468.887L535.954 470.127C535.423 475.03 526.935 479.705 535.343 486.144L535.47 487.206C532.257 485.774 529.075 488.263 526.828 486.8C521.485 483.32 520.884 479.815 514.082 478.724C513.608 478.384 513.132 478.045 512.658 477.705C511.828 470.064 509.633 463.199 507.44 455.865C499.721 452.557 491.331 454.689 488.964 452.07C490.41 449.36 495.749 447.656 496.64 443.938C496.099 441.677 495.923 441.29 496.061 439.008C497.744 437.244 497.974 437.068 500.369 436.652C503.194 438.218 503.737 440.403 505.866 443.505L507.327 443.247L508.2 441.696C506.577 437.531 506.22 437.138 508.745 433.851Z" fill="var(--fill-0, #008AA9)" fill-opacity="0.28"/>
<path id="Vector_11" d="M935.518 703.648C938.086 702.767 944.433 703.669 947.001 704.985C954.445 708.8 986.387 725.089 963.987 731.604C958.537 733.188 960.417 734.233 953.931 733.499C950.954 731.607 949.987 727.827 948.69 724.455C943.954 721.973 942.256 720.286 938.382 716.782C933.063 717.002 927.264 716.979 921.902 717.065C919.298 714.764 916.8 711.916 914.423 709.339C922.929 700.723 923.312 705.705 935.518 703.648Z" fill="var(--fill-0, #008AA9)" fill-opacity="0.28"/>
<path id="Vector_12" d="M1492.45 630.737C1494.59 631.378 1499.61 636.972 1501.38 638.798C1501.32 655.23 1501.11 647.932 1497.84 663.493L1485.74 660.177C1484.08 662.218 1482.95 663.846 1480.66 665.209C1478.18 664.978 1479.02 665.428 1477.56 663.691C1471.23 660.658 1468.8 663.649 1463.17 663.046C1462.79 659.667 1467.45 658.079 1468.96 654.05C1470.69 649.46 1471.65 644.354 1472.7 639.594C1478.32 637.828 1484.74 633.425 1492.45 630.737Z" fill="var(--fill-0, #008AA9)" fill-opacity="0.28"/>
<path id="Vector_13" d="M1214.18 327.869C1216.17 328.223 1215.43 327.941 1217.03 329.309C1216.64 333.894 1218.78 336.785 1218.06 340.764C1216.33 350.329 1205.1 346.426 1202.76 355.494C1204.46 361.174 1213.67 361.294 1217.19 365.305C1216.31 367.268 1216.81 366.608 1214.18 367.617L1215.08 367.637C1207.09 368.832 1198.05 363.734 1192.69 367.144L1193.17 381.382L1192.69 384.283C1190.81 383.051 1192.85 374.53 1189.69 370.936L1189.45 375.48L1188.51 375.968C1186.83 367.641 1189.69 372.318 1185.06 369.426C1181.81 367.396 1182.9 356.842 1186.77 353.496C1189.26 354.315 1190.13 354.604 1192.79 354.959C1198.44 350.559 1191.66 347.054 1202.86 342.687C1204.16 339.741 1203.5 340.505 1202.79 336.632C1204.82 333.416 1210.77 330.09 1214.18 327.869Z" fill="var(--fill-0, #008AA9)" fill-opacity="0.28"/>
<path id="Vector_14" d="M991.367 682.488L989.635 685.037C987.719 685.614 979.179 687.851 978.648 687.381C970.359 680.004 948.69 688.757 942.152 680.157C941.49 669.857 960.121 666.362 967.765 668.313C975.052 670.175 973.354 672.106 981.146 670.226L981.468 670.451C987.084 674.294 987.806 674.896 994.231 677.371L991.367 682.488Z" fill="var(--fill-0, #008AA9)" fill-opacity="0.28"/>
<path id="Vector_15" d="M1152.66 485.016C1162.6 488.488 1161.29 487.318 1167.16 496.049C1168.11 497.461 1171.09 496.894 1173.31 496.867C1174.57 499.385 1172.8 504.811 1171.93 507.498C1168.32 508.727 1158.45 513.444 1156.3 513.848C1150 511.381 1134.58 501.334 1135.75 493.525C1137.42 491.16 1136.56 491.75 1138.93 490.838C1140.14 492.088 1140.33 492.402 1141.83 493.212C1145.25 490.156 1148.93 487.66 1152.66 485.016Z" fill="var(--fill-0, #008AA9)" fill-opacity="0.28"/>
<path id="Vector_16" d="M1375.53 602.216C1368.46 591.347 1376.32 593.168 1378.67 587.684C1379.91 584.806 1378.71 569.255 1386.02 569.401L1386.46 571.311L1388.16 568.319C1393.45 575.239 1383.96 580.692 1389.66 589.66C1390.3 594.459 1381.07 605.594 1379.58 610.72C1379.43 611.222 1376.29 613.756 1375.73 614.256C1373.28 609.775 1376.53 609.028 1375.53 602.216Z" fill="var(--fill-0, #008AA9)" fill-opacity="0.28"/>
<path id="Vector_17" d="M797.004 659.424C804.259 658.826 811.779 664.017 811.905 671.729C805.484 672.292 806.02 674.952 800.649 677.471C799.069 678.212 798.424 682.195 798.031 683.761L797.105 683.57L796.923 679.795C788.54 669.319 787.083 673.06 778.239 666.642C777.136 664.563 776.192 663.745 776.493 661.82C785.774 661.447 787.222 667.22 797.004 659.424Z" fill="var(--fill-0, #008AA9)" fill-opacity="0.28"/>
<path id="Vector_18" d="M570.207 469.81C587.179 476.819 584.1 479.95 576.53 493.759L574.742 492.721C573.428 490.768 573.17 490.24 571.243 488.92C568.207 489.503 567.178 491.405 564.674 493.9C560.894 484.154 557.007 472.92 570.207 469.81Z" fill="var(--fill-0, #008AA9)" fill-opacity="0.28"/>
<path id="Vector_19" d="M1193.11 312.18C1193.76 314.889 1189.82 315.765 1191.81 320.842C1197.36 323.624 1196.51 329.648 1197.44 335.777C1197.27 336.085 1197.08 336.392 1196.91 336.696C1191.62 345.386 1186.44 343.647 1182.73 350.807L1183.04 351.01L1182.7 351.031L1184.42 352.038L1182.59 351.282C1178.7 340.117 1182.58 322.27 1190.45 313.583L1191.15 313.754L1193.11 312.18Z" fill="var(--fill-0, #008AA9)" fill-opacity="0.28"/>
<path id="Vector_20" d="M727.398 617.788C730.881 618.173 734.343 618.719 737.856 618.994C744.02 619.477 758.715 616.892 763.243 620.555L762.875 621.856C761.898 620.406 762.544 620.863 760.915 620.386C758.767 621.864 758.06 624.058 756.996 626.431C748.642 625.432 726.837 636.282 721.945 625.114C722.326 622.187 725.196 619.956 727.398 617.788Z" fill="var(--fill-0, #008AA9)" fill-opacity="0.28"/>
<path id="Vector_21" d="M830.795 665.658C836.607 665.939 842.462 664.854 844.401 671.105C844.027 674.517 839.997 681.488 837.738 683.89L834.912 686.855C830.909 686.804 824.818 686.481 821.46 684.121C823.091 682.933 824.02 682.082 825.509 680.713C828.446 672.021 821.062 676.012 830.795 665.658Z" fill="var(--fill-0, #008AA9)" fill-opacity="0.28"/>
<path id="Vector_22" d="M307.964 415.509C309.293 415.819 310.046 416.157 311.287 416.661C312.626 424.024 324.929 438.521 320.186 445.082L310.48 442.271C307.863 430.339 299.851 425.396 307.964 415.509Z" fill="var(--fill-0, #008AA9)" fill-opacity="0.28"/>
<path id="Vector_23" d="M273.26 334.401C273.28 337.753 275.654 341.402 277.282 344.465C280.304 346.26 283.336 348.039 286.377 349.801C285.754 354.622 284.863 364.966 280.694 367.15C280.429 358.353 270.446 347.117 265.15 339.587L266.252 338.301C269.462 337.326 270.098 337.092 272.677 334.903L273.26 334.401Z" fill="var(--fill-0, #008AA9)" fill-opacity="0.28"/>
<path id="Vector_24" d="M1088.18 438.695C1093.67 438.197 1110.15 438.795 1112.68 444.217C1111.21 445.31 1108.73 444.959 1106.53 445.03L1106.59 445.67C1108.66 446.047 1110.72 446.398 1112.79 446.722L1109.13 449.06C1107.31 448.132 1105.36 445.702 1104.64 445.784C1097.61 446.597 1093.01 453.133 1086.12 451.261C1082.42 446.787 1085.19 442.395 1088.18 438.695Z" fill="var(--fill-0, #008AA9)" fill-opacity="0.28"/>
<path id="Vector_25" d="M1275.78 384.58C1280.35 384.565 1284.92 384.63 1289.49 384.775C1291.44 387.135 1292.88 388.602 1293.99 391.465C1291.38 393.949 1288.66 391.015 1282.45 396.365L1281.86 396.867C1277.03 396.109 1280.13 394.494 1275.83 393.546L1273.68 395.908C1271.27 395.106 1274.63 395.539 1272.5 391.891C1270.21 390.593 1268.97 390.565 1266.43 390.21L1266.09 389.427C1269.28 386.895 1272.03 386.035 1275.78 384.58Z" fill="var(--fill-0, #008AA9)" fill-opacity="0.28"/>
<path id="Vector_26" d="M406.188 333.547C408.371 336.045 407.873 340.875 407.925 344.415C408.714 341.626 408.432 337.875 410.015 336.721C410.969 338.99 410.043 341.451 409.485 344.018L410.254 344.359L411.1 341.451L412.246 342.021C412.812 344.324 412.933 344.807 414.083 346.873C420.286 348.066 417.633 344.497 422.975 345.966C425.496 348.419 427.797 349.877 427.284 353.52C425.895 354.88 424.513 355.784 422.563 355.831C412.709 356.076 413.431 356.36 406.276 350.686L406.188 333.547Z" fill="var(--fill-0, #008AA9)" fill-opacity="0.28"/>
<path id="Vector_27" d="M1211.75 291.01C1218.35 293.791 1215.88 308.568 1208.3 312.571C1196.13 308.958 1207.97 295.974 1211.75 291.01Z" fill="var(--fill-0, #008AA9)" fill-opacity="0.28"/>
<path id="Vector_28" d="M1185.62 428.103C1189.75 431.369 1197.93 432.963 1199.42 439.383C1196.93 440.334 1197.43 439.9 1194.21 438.58C1189.31 438.978 1180.38 444.262 1178.56 438.653C1180.35 432.243 1180.2 431.641 1185.62 428.103Z" fill="var(--fill-0, #008AA9)" fill-opacity="0.28"/>
<path id="Vector_29" d="M994.231 677.371C1009.12 669.588 1011.61 679.172 1019.14 679.167L1015.11 681.753L1011.26 680.821C1008.2 683.079 1007.57 685.611 1003.77 684.626C995.772 682.551 999.586 681.261 991.367 682.488L994.231 677.371Z" fill="var(--fill-0, #008AA9)" fill-opacity="0.28"/>
<path id="Vector_30" d="M1294.85 632.769C1296.91 633.083 1296.85 632.838 1298.8 631.938C1300.52 639.687 1293.11 649.006 1287.12 653.13L1286.04 654.003L1285.1 653.195C1284.86 643.712 1286.35 637.354 1294.85 632.769Z" fill="var(--fill-0, #008AA9)" fill-opacity="0.28"/>
<path id="Vector_31" d="M1100.38 659.839C1101.41 660.561 1103.21 660.243 1104.58 660.168C1106.68 662.27 1106.42 661.381 1106.6 663.793C1104.58 667.289 1092.41 669.901 1088.48 669.642C1086.72 669.783 1085.25 669.982 1083.51 670.235C1082.72 667.354 1086.19 661.247 1089.32 661.089C1093.52 660.875 1095.29 661.352 1099.54 660.097L1100.38 659.839Z" fill="var(--fill-0, #008AA9)" fill-opacity="0.28"/>
<path id="Vector_32" d="M1150.79 641.029C1151.27 641.159 1152.41 641.849 1152.91 642.13C1153.74 647.059 1147.81 652.894 1142.93 653.578C1138.66 654.177 1135.7 652.335 1132.35 650.003L1131.01 650.499C1130.65 649.727 1130.45 649.735 1129.72 649.107L1128.76 649.519L1128.46 648.104C1132.46 643.632 1139.11 649.565 1150.79 641.029Z" fill="var(--fill-0, #008AA9)" fill-opacity="0.28"/>
<path id="Vector_33" d="M828.522 494.057C830.232 495.613 827.894 498.233 829.367 500.946L833.808 499.962C835.44 502.075 829.689 507.665 831.189 511.602C831.352 512.032 831.58 516.27 831.631 517.089C830.106 518.76 829.624 519.008 827.675 520.181C820.766 512.506 822.595 501.732 828.522 494.057Z" fill="var(--fill-0, #008AA9)" fill-opacity="0.28"/>
<path id="Vector_34" d="M1032.32 540.737C1032.54 551.215 1035.99 549.924 1028.67 559.061C1028.21 559.64 1029.61 565.033 1027.71 567.282L1026.3 564.623L1026.37 562.705L1024.01 563.801C1023.31 561.889 1023.41 550.61 1023.29 547.628C1027.53 545.022 1028.85 544.277 1032.32 540.737Z" fill="var(--fill-0, #008AA9)" fill-opacity="0.28"/>
<path id="Vector_35" d="M1263.07 441.318C1265.31 440.96 1265.57 440.985 1267.58 442.037C1269.27 446.684 1266.92 450.302 1263.05 452.894C1260.13 453.421 1261.16 453.656 1259 452.328C1254.91 449.318 1253.34 451.984 1250.15 447.709C1251.8 444.888 1259.59 442.559 1263.07 441.318Z" fill="var(--fill-0, #008AA9)" fill-opacity="0.28"/>
<path id="Vector_36" d="M1410.15 439.743C1426.84 437.249 1431.01 440.564 1446.21 443.783L1446.06 444.489L1440.42 445.073C1441.44 445.722 1446.42 445.644 1447.98 445.682L1450.79 446.199L1450.39 446.995C1438.12 448.296 1436.5 449.964 1427.85 442.903C1428.44 443.379 1411.7 440.112 1410.15 439.743Z" fill="var(--fill-0, #008AA9)" fill-opacity="0.28"/>
<path id="Vector_37" d="M1424.31 408.995L1425.71 408.68C1431.58 414.989 1427.73 413.275 1436.73 421.238C1435.74 422.813 1432.48 423.646 1430.37 424.481C1423.6 423.766 1421.8 416.558 1419.26 410.968L1417.57 410.668L1417.55 409.812C1420.16 409.623 1421.7 409.477 1424.31 408.995Z" fill="var(--fill-0, #008AA9)" fill-opacity="0.28"/>
<path id="Vector_38" d="M1036.51 402.555C1042.01 402.894 1047.32 402.413 1052.88 403.131C1056.91 406.937 1053.89 408.122 1055.24 414.681L1055.42 415.493C1045.42 413.965 1051.4 411.94 1046.23 408.782L1043.33 410.835C1042.33 409.151 1043.03 409.746 1041.12 409.066L1041.15 408.143L1043.44 406.9C1041.84 405.521 1038.45 403.684 1036.51 402.555Z" fill="var(--fill-0, #008AA9)" fill-opacity="0.28"/>
<path id="Vector_39" d="M1049.58 739.304C1051.91 740.761 1052.05 742.137 1051.92 744.493C1049.46 749.152 1040.5 751.353 1034.9 754.16L1033.18 752.921C1033.37 748.164 1043.7 746.057 1049.58 739.304Z" fill="var(--fill-0, #008AA9)" fill-opacity="0.28"/>
<path id="Vector_40" d="M1030.52 670.136C1031.09 670.164 1032.64 670.583 1033.29 670.737C1034.36 674.654 1033.99 675.394 1031.2 677.842C1029.79 676.654 1030.28 676.749 1028.67 676.464C1028.89 677.716 1028.71 678.336 1028.51 679.569C1025.64 680.656 1024.34 680.989 1021.57 679.775C1020.21 674.48 1026.44 671.512 1030.52 670.136Z" fill="var(--fill-0, #008AA9)" fill-opacity="0.28"/>
<path id="Vector_41" d="M1375.53 602.216C1376.53 609.028 1373.28 609.775 1375.73 614.256C1375.49 615.571 1375.37 615.324 1374.25 616.459L1372.51 616.332C1368.57 611.225 1369.34 604.944 1375.53 602.216Z" fill="var(--fill-0, #008AA9)" fill-opacity="0.28"/>
<path id="Vector_42" d="M1134.59 445.13C1136.45 444.612 1141.5 443.951 1143.37 444.763C1140.95 446.057 1133.12 448.016 1130.26 447.982C1125.6 448.157 1122.99 447.994 1118.38 447.586C1122.81 446.374 1132.22 446.604 1134.59 445.13Z" fill="var(--fill-0, #008AA9)" fill-opacity="0.28"/>
</g>
</svg>
